<?xml version="1.0" encoding="UTF-8" standalone="no"?>
<!DOCTYPE svg PUBLIC "-//W3C//DTD SVG 1.1//EN" "http://www.w3.org/Graphics/SVG/1.1/DTD/svg11.dtd">
<svg width="100%" height="100%" viewBox="0 0 267 267" version="1.1" xmlns="http://www.w3.org/2000/svg" xmlns:xlink="http://www.w3.org/1999/xlink" xml:space="preserve" xmlns:serif="http://www.serif.com/" style="fill-rule:evenodd;clip-rule:evenodd;stroke-linejoin:round;stroke-miterlimit:2;">
    <g transform="matrix(0.333333,0,0,0.333333,0,0)">
        <g id="teaser2" transform="matrix(-0.000323324,1.3495,-1.3495,-0.000323324,993,-145.91)">
            <g id="three" transform="matrix(-0.000328325,-1.37037,1.23457,-0.000295788,400.59,731.008)">
                <g>
                    <g transform="matrix(0.82812,1.09089e-19,7.55616e-20,0.910112,-129.545,4.66292)">
                        <circle cx="508.5" cy="107.5" r="44.5" style="fill:rgb(0,221,255);"/>
                    </g>
                    <g transform="matrix(0.738046,-3.45074e-20,1.03626e-20,1,4.52807,2.84224e-14)">
                        <rect x="73" y="62" width="312" height="81" style="fill:rgb(0,221,255);"/>
                    </g>
                </g>
                <g>
                    <g transform="matrix(0.91446,1.50779e-20,-4.5279e-21,0.8,-78.9229,21.31)">
                        <g transform="matrix(0.333191,-8.78392e-20,2.63781e-20,1,178.519,-5.14847e-18)">
                            <rect x="73" y="62" width="312" height="81" style="fill:rgb(101,234,255);"/>
                        </g>
                        <g transform="matrix(0.82812,-1.08009e-20,3.2435e-21,0.910112,-88.3292,4.66292)">
                            <circle cx="508.5" cy="107.5" r="44.5" style="fill:rgb(101,234,255);"/>
                        </g>
                    </g>
                    <g transform="matrix(-0.800661,-2.10856e-19,6.33201e-20,0.8,383.542,21.31)">
                        <g transform="matrix(0.455958,-7.16669e-20,2.15216e-20,1,169.557,8.65477e-19)">
                            <rect x="73" y="62" width="312" height="81" style="fill:rgb(101,234,255);"/>
                        </g>
                        <g transform="matrix(0.82812,-1.08009e-20,3.2435e-21,0.910112,-75.5613,4.66292)">
                            <circle cx="508.5" cy="107.5" r="44.5" style="fill:rgb(101,234,255);"/>
                        </g>
                    </g>
                </g>
                <g transform="matrix(-0.000221843,1.02779,-0.920033,-0.000244676,534.869,-195.115)">
                    <g id="one">
                        <g>
                            <g transform="matrix(1.13278,0,0,1.13278,186.212,-249.87)">
                                <circle cx="91.5" cy="454.5" r="24.5" style="fill:rgb(228,251,255);fill-opacity:0.55;"/>
                            </g>
                            <g transform="matrix(0.000138176,-0.742233,0.742233,0.000138176,224.724,631.004)">
                                <text x="482.998px" y="101.172px" style="font-family:'ArialMT', 'Arial', sans-serif;font-size:37.5px;fill:rgb(0,120,139);">3</text>
                            </g>
                        </g>
                    </g>
                </g>
                <g transform="matrix(0.312208,4.11273e-20,1.37091e-20,0.34655,32.5988,-88.1329)">
                    <g transform="matrix(0.993627,0,0,1,1.51481,0)">
                        <text x="237.681px" y="544.21px" style="font-family:'ArialMT', 'Arial', sans-serif;font-size:48.694px;fill:rgb(1,120,139);">JOHNS HOPKINS</text>
                    </g>
                    <g transform="matrix(0.993627,0,0,1,1.51481,0)">
                        <text x="318.854px" y="594.498px" style="font-family:'ArialMT', 'Arial', sans-serif;font-size:48.694px;fill:rgb(1,120,139);">HOSPIT<tspan x="496.488px 528.967px " y="594.498px 594.498px ">AL</tspan></text>
                    </g>
                </g>
            </g>
            <g id="two" transform="matrix(-0.000328325,-1.37037,1.23457,-0.000295788,277.59,731.037)">
                <g transform="matrix(0.871362,-2.46481e-20,-1.54037e-21,1,-5.204,-2.84211e-14)">
                    <rect x="73" y="62" width="312" height="81" style="fill:rgb(133,180,255);"/>
                </g>
                <g>
                    <g transform="matrix(0.91446,1.50779e-20,-4.5279e-21,0.8,-55.5716,21.31)">
                        <g transform="matrix(0.455958,-7.16669e-20,2.15216e-20,1,169.557,8.65477e-19)">
                            <rect x="73" y="62" width="312" height="81" style="fill:rgb(161,197,255);"/>
                        </g>
                        <g transform="matrix(0.82812,-1.08009e-20,3.2435e-21,0.910112,-75.5613,4.66292)">
                            <circle cx="508.5" cy="107.5" r="44.5" style="fill:rgb(161,197,255);"/>
                        </g>
                    </g>
                    <g transform="matrix(-0.800661,-2.10856e-19,6.33201e-20,0.8,383.542,21.31)">
                        <g transform="matrix(0.455958,-7.16669e-20,2.15216e-20,1,169.557,8.65477e-19)">
                            <rect x="73" y="62" width="312" height="81" style="fill:rgb(161,197,255);"/>
                        </g>
                        <g transform="matrix(0.82812,-1.08009e-20,3.2435e-21,0.910112,-75.5613,4.66292)">
                            <circle cx="508.5" cy="107.5" r="44.5" style="fill:rgb(161,197,255);"/>
                        </g>
                    </g>
                </g>
                <g transform="matrix(-0.000221843,1.02779,-0.920033,-0.000244676,575.004,-195.115)">
                    <g id="one1" serif:id="one">
                        <g>
                            <g transform="matrix(-0.000214279,-0.900099,0.885507,-0.000213518,194.549,722.116)">
                                <circle cx="508.5" cy="107.5" r="44.5" style="fill:rgb(133,180,255);"/>
                            </g>
                            <g transform="matrix(1.13278,0,0,1.13278,186.212,-249.87)">
                                <circle cx="91.5" cy="454.5" r="24.5" style="fill:rgb(205,224,255);fill-opacity:0.55;"/>
                            </g>
                            <g transform="matrix(0.000154227,-0.828453,0.828453,0.000154227,215.164,671.99)">
                                <text x="482.998px" y="101.172px" style="font-family:'ArialMT', 'Arial', sans-serif;font-size:31.71px;fill:rgb(41,123,255);">2</text>
                            </g>
                        </g>
                    </g>
                </g>
                <g transform="matrix(0.374974,6.58607e-20,0,0.418891,-3.73686,-71.3199)">
                    <text x="250.938px" y="431.138px" style="font-family:'ArialMT', 'Arial', sans-serif;font-size:40.285px;fill:rgb(47,126,255);">ST<tspan x="299.406px 326.276px " y="431.138px 431.138px ">AN</tspan>FORD HEAL<tspan x="582.916px 607.523px " y="431.138px 431.138px ">TH</tspan> CARE</text>
                </g>
            </g>
            <g id="one2" serif:id="one" transform="matrix(-0.000328325,-1.37037,1.23457,-0.000295788,155.59,731.067)">
                <g>
                    <g transform="matrix(1.04678,6.16203e-21,-1.85046e-21,1,-18.0094,-2.84217e-14)">
                        <rect x="73" y="62" width="312" height="81" style="fill:rgb(178,129,255);"/>
                    </g>
                    <g transform="matrix(0.82812,-1.08009e-20,3.2435e-21,0.910112,-41.2478,4.66292)">
                        <circle cx="508.5" cy="107.5" r="44.5" style="fill:rgb(178,129,255);"/>
                    </g>
                </g>
                <g>
                    <g transform="matrix(0.91446,1.50779e-20,-4.5279e-21,0.8,-2.30132,21.31)">
                        <g transform="matrix(0.455958,-7.16669e-20,2.15216e-20,1,169.557,8.65477e-19)">
                            <rect x="73" y="62" width="312" height="81" style="fill:rgb(210,181,255);"/>
                        </g>
                        <g transform="matrix(0.82812,-1.08009e-20,3.2435e-21,0.910112,-75.5613,4.66292)">
                            <circle cx="508.5" cy="107.5" r="44.5" style="fill:rgb(210,181,255);"/>
                        </g>
                    </g>
                    <g transform="matrix(-0.800661,-2.10856e-19,6.33201e-20,0.8,383.542,21.31)">
                        <g transform="matrix(0.455958,-7.16669e-20,2.15216e-20,1,169.557,8.65477e-19)">
                            <rect x="73" y="62" width="312" height="81" style="fill:rgb(210,181,255);"/>
                        </g>
                        <g transform="matrix(0.82812,-1.08009e-20,3.2435e-21,0.910112,-75.5613,4.66292)">
                            <circle cx="508.5" cy="107.5" r="44.5" style="fill:rgb(210,181,255);"/>
                        </g>
                    </g>
                </g>
                <g transform="matrix(-0.000221843,1.02779,-0.920033,-0.000244676,623.166,-195.115)">
                    <g id="one3" serif:id="one">
                        <g>
                            <g transform="matrix(1.13278,0,0,1.13278,186.212,-249.87)">
                                <circle cx="91.5" cy="454.5" r="24.5" style="fill:rgb(239,229,255);fill-opacity:0.55;"/>
                            </g>
                            <g transform="matrix(0.000154227,-0.828453,0.828453,0.000154227,216.741,672.782)">
                                <text x="482.998px" y="101.172px" style="font-family:'ArialMT', 'Arial', sans-serif;font-size:37.5px;fill:rgb(132,53,255);">1</text>
                            </g>
                        </g>
                    </g>
                </g>
                <g transform="matrix(0.346385,6.08394e-20,0,0.384488,25.6969,-16.5174)">
                    <g transform="matrix(0.993627,0,0,1,1.56031,0)">
                        <text x="244.82px" y="304.217px" style="font-family:'ArialMT', 'Arial', sans-serif;font-size:43.89px;fill:rgb(129,49,255);">NEW <tspan x="358.611px 387.885px " y="304.217px 304.217px ">YO</tspan>RK-PRESBYTERIAN</text>
                    </g>
                    <g transform="matrix(0.993627,0,0,1,1.56031,0)">
                        <text x="439.923px" y="349.542px" style="font-family:'ArialMT', 'Arial', sans-serif;font-size:43.89px;fill:rgb(129,49,255);">HOSPIT<tspan x="600.031px 629.305px " y="349.542px 349.542px ">AL</tspan></text>
                    </g>
                </g>
            </g>
            <g transform="matrix(1,0,0,1,0.997604,-10.0002)">
                <g transform="matrix(0.88566,-2.95897e-17,-2.35737e-17,0.494121,65.6373,384.94)">
                    <rect x="163" y="645" width="437" height="6" style="fill:rgb(168,168,168);"/>
                </g>
                <g transform="matrix(-0.000293689,-1.22581,1.22581,-0.000293689,5.35463,847.646)">
                    <circle cx="115.5" cy="426.5" r="15.5" style="fill:rgb(0,211,244);"/>
                </g>
                <g transform="matrix(-0.000293689,-1.22581,1.22581,-0.000293689,-117.645,847.676)">
                    <circle cx="115.5" cy="426.5" r="15.5" style="fill:rgb(91,154,255);"/>
                </g>
                <g transform="matrix(-0.000293689,-1.22581,1.22581,-0.000293689,-240.646,846.705)">
                    <circle cx="115.5" cy="426.5" r="15.5" style="fill:rgb(129,48,255);"/>
                </g>
            </g>
        </g>
    </g>
</svg>
