<?xml version="1.0" encoding="UTF-8" standalone="no"?>
<!DOCTYPE svg PUBLIC "-//W3C//DTD SVG 1.1//EN" "http://www.w3.org/Graphics/SVG/1.1/DTD/svg11.dtd">
<svg width="100%" height="100%" viewBox="0 0 267 267" version="1.1" xmlns="http://www.w3.org/2000/svg" xmlns:xlink="http://www.w3.org/1999/xlink" xml:space="preserve" xmlns:serif="http://www.serif.com/" style="fill-rule:evenodd;clip-rule:evenodd;stroke-linecap:round;stroke-linejoin:round;stroke-miterlimit:1.5;">
    <g transform="matrix(0.333333,0,0,0.333333,0,0)">
        <g id="teaser1" transform="matrix(1.28998,0,0,1.28998,-128.219,-160.947)">
            <g>
                <g id="one" transform="matrix(0.828453,0,0,1.04737,88.9622,33.5053)">
                    <rect x="189" y="116" width="110" height="474" style="fill:rgb(0,241,255);"/>
                </g>
                <g transform="matrix(1,0,0,1,2,-57)">
                    <g transform="matrix(1.13278,0,0,1.13278,186.212,-249.87)">
                        <circle cx="91.5" cy="454.5" r="24.5" style="fill:white;fill-opacity:0.55;"/>
                    </g>
                    <g transform="matrix(0.828453,0,0,0.828453,-118.151,193.318)">
                        <text x="482.998px" y="101.172px" style="font-family:'ArialMT', 'Arial', sans-serif;font-size:37.5px;fill:white;">1</text>
                    </g>
                </g>
            </g>
            <g>
                <g id="two" transform="matrix(0.828453,0,0,0.571598,204.946,314.209)">
                    <rect x="189" y="116" width="110" height="474" style="fill:rgb(138,247,255);"/>
                </g>
                <g transform="matrix(1,0,0,1,0,-25)">
                    <g transform="matrix(1.13278,0,0,1.13278,303.853,-56.0125)">
                        <circle cx="91.5" cy="454.5" r="24.5" style="fill:rgb(0,113,110);fill-opacity:0.28;"/>
                    </g>
                    <g transform="matrix(0.828453,0,0,0.828453,-1.33915,386.347)">
                        <text x="482.998px" y="101.172px" style="font-family:'ArialMT', 'Arial', sans-serif;font-size:37.5px;fill:rgb(143,241,255);">2</text>
                    </g>
                </g>
            </g>
            <g>
                <g id="three" transform="matrix(0.828453,0,0,0.334075,320.929,454.348)">
                    <rect x="189" y="116" width="110" height="474" style="fill:rgb(111,186,197);"/>
                </g>
                <g transform="matrix(1,0,0,1,0,-9)">
                    <g transform="matrix(1.13278,0,0,1.13278,419.836,40.088)">
                        <circle cx="91.5" cy="454.5" r="24.5" style="fill:rgb(116,148,153);fill-opacity:0.4;"/>
                    </g>
                    <g transform="matrix(0.828453,0,0,0.828453,115.473,483.276)">
                        <text x="482.998px" y="101.172px" style="font-family:'ArialMT', 'Arial', sans-serif;font-size:37.5px;fill:rgb(78,143,152);">3</text>
                    </g>
                </g>
            </g>
            <g>
                <g>
                    <g transform="matrix(-0.94058,0.000535795,-0.000280927,-0.493163,761.853,1026.75)">
                        <rect x="163" y="645" width="437" height="6" style="fill:rgb(168,168,168);"/>
                    </g>
                    <g transform="matrix(0.586131,0.585478,-0.585478,0.586131,545.06,144.372)">
                        <rect x="238" y="677" width="43" height="43" style="fill:rgb(0,216,212);"/>
                    </g>
                    <g transform="matrix(0.586131,0.585478,-0.585478,0.586131,662.701,144.372)">
                        <rect x="238" y="677" width="43" height="43" style="fill:rgb(114,245,255);"/>
                    </g>
                    <g transform="matrix(0.586131,0.585478,-0.585478,0.586131,780.341,144.372)">
                        <rect x="238" y="677" width="43" height="43" style="fill:rgb(129,170,176);"/>
                    </g>
                </g>
            </g>
            <g transform="matrix(1,0,0,1,-14,40)">
                <g transform="matrix(1.31707,0,0,1.11694,-98.9268,-12.6815)">
                    <path d="M313.519,226.964L367,171L367,117L558,117L557.759,230L366,229L366,201L313.519,226.964Z" style="fill:white;fill-opacity:0.56;stroke:rgb(126,126,126);stroke-width:0.26px;"/>
                </g>
                <g transform="matrix(1.86777,0,0,1.19277,-314.62,-22.8675)">
                    <rect x="381" y="129" width="121" height="83" style="fill:white;"/>
                </g>
                <g transform="matrix(1,0,0,1,11,25)">
                    <g transform="matrix(0.993627,0,0,1,2.56851,0)">
                        <text x="403.011px" y="150.685px" style="font-family:'ArialMT', 'Arial', sans-serif;font-size:20.833px;fill:rgb(107,107,107);">INSULIN GLARGINE</text>
                    </g>
                    <g transform="matrix(0.993627,0,0,1,2.56851,0)">
                        <text x="414.587px" y="172.2px" style="font-family:'ArialMT', 'Arial', sans-serif;font-size:20.833px;fill:rgb(107,107,107);">$4,074,847,391.14</text>
                    </g>
                </g>
            </g>
        </g>
    </g>
</svg>
