<?xml version="1.0" encoding="UTF-8" standalone="no"?>
<!DOCTYPE svg PUBLIC "-//W3C//DTD SVG 1.1//EN" "http://www.w3.org/Graphics/SVG/1.1/DTD/svg11.dtd">
<svg width="100%" height="100%" viewBox="0 0 267 267" version="1.1" xmlns="http://www.w3.org/2000/svg" xmlns:xlink="http://www.w3.org/1999/xlink" xml:space="preserve" xmlns:serif="http://www.serif.com/" style="fill-rule:evenodd;clip-rule:evenodd;stroke-linejoin:round;stroke-miterlimit:2;">
    <g transform="matrix(0.333333,0,0,0.333333,0,0)">
        <g id="PillLayer" transform="matrix(-1.33778,-0.614811,0.614811,-1.33778,891.22,1821.03)">
            <g id="pill1" transform="matrix(-0.51193,0.000703601,-0.000671195,-0.488352,1096.85,953.17)">
                <g transform="matrix(0.714961,-0.956569,0.80099,0.598678,-244.739,888.167)">
                    <path d="M714.923,537.39L817.22,538.144L813.239,229.042C813.239,229.042 791.525,224.097 762.47,239.675C733.415,255.253 725.035,273.359 725.035,273.359C725.009,271.106 713.594,294.741 713.939,310.843C714.219,323.934 714.923,537.39 714.923,537.39Z" style="fill:rgb(212,243,255);"/>
                </g>
                <g transform="matrix(-0.714961,0.956569,0.80099,0.598678,913.193,-661.067)">
                    <path d="M713.433,537.079L817.22,538.144L813.239,229.042C813.239,229.042 791.525,224.097 762.47,239.675C733.415,255.253 725.035,273.359 725.035,273.359C725.009,271.106 713.594,294.741 713.939,310.843C714.219,323.934 713.433,537.079 713.433,537.079Z" style="fill:rgb(212,243,255);"/>
                </g>
                <g transform="matrix(1.48527,-1.9872,0.80099,0.598678,-895.898,1744.36)">
                    <ellipse cx="823.48" cy="248.399" rx="16.15" ry="11.816" style="fill:rgb(212,243,255);"/>
                </g>
            </g>
            <g id="PILL" transform="matrix(0.555931,1.02057e-16,-1.02057e-16,0.555931,290.058,489.525)">
                <g id="pill11" serif:id="pill1" transform="matrix(-1.0173,0.0142855,-0.0146046,-1.04003,1527.79,892.439)">
                    <g transform="matrix(0.714961,-0.956569,0.80099,0.598678,-244.739,888.167)">
                        <path d="M714.923,537.39L817.22,538.144L813.239,229.042C813.239,229.042 791.525,224.097 762.47,239.675C733.415,255.253 725.035,273.359 725.035,273.359C725.009,271.106 713.594,294.741 713.939,310.843C714.219,323.934 714.923,537.39 714.923,537.39Z" style="fill:rgb(230,248,255);"/>
                    </g>
                    <g transform="matrix(-0.714961,0.956569,0.80099,0.598678,913.193,-661.067)">
                        <path d="M713.433,537.079L817.22,538.144L813.239,229.042C813.239,229.042 791.525,224.097 762.47,239.675C733.415,255.253 725.035,273.359 725.035,273.359C725.009,271.106 713.594,294.741 713.939,310.843C714.219,323.934 713.433,537.079 713.433,537.079Z" style="fill:rgb(230,248,255);"/>
                    </g>
                    <g transform="matrix(1.48527,-1.9872,0.80099,0.598678,-895.898,1744.36)">
                        <ellipse cx="823.48" cy="248.399" rx="16.15" ry="11.816" style="fill:rgb(230,248,255);"/>
                    </g>
                </g>
                <g transform="matrix(0.999949,-0.459553,0.459553,0.999949,145.573,239.262)">
                    <path d="M327.281,465.11C369.438,411.348 411.954,371.643 513.141,361.766L423.438,190.595C336.479,89.125 183.191,203.286 232.61,295.736L327.281,465.11Z" style="fill:rgb(181,234,255);"/>
                </g>
                <g id="pill2" transform="matrix(0.877513,8.99678e-17,-1.37885e-16,0.881746,55.0193,101.409)">
                    <g transform="matrix(0.712178,-0.952846,0.80099,0.598678,-216.493,850.376)">
                        <path d="M714.923,537.39L817.22,538.144L813.239,229.042C813.239,229.042 791.525,224.097 762.47,239.675C733.415,255.253 725.035,273.359 725.035,273.359C725.009,271.106 713.594,294.741 713.939,310.843C714.219,323.934 714.923,537.39 714.923,537.39Z" style="fill:rgb(141,223,255);"/>
                    </g>
                    <g transform="matrix(-0.712178,0.952846,0.80099,0.598678,936.932,-692.828)">
                        <path d="M713.433,537.079L817.22,538.144L813.239,229.042C813.239,229.042 791.525,224.097 762.47,239.675C733.415,255.253 725.035,273.359 725.035,273.359C725.009,271.106 713.594,294.741 713.939,310.843C714.219,323.934 713.433,537.079 713.433,537.079Z" style="fill:rgb(141,223,255);"/>
                    </g>
                    <g transform="matrix(1.47949,-1.97946,0.80099,0.598678,-865.146,1703.22)">
                        <ellipse cx="823.48" cy="248.399" rx="16.15" ry="11.816" style="fill:rgb(141,223,255);"/>
                    </g>
                </g>
            </g>
            <g transform="matrix(-0.460366,0.211573,-0.211573,-0.460366,981.144,839.298)">
                <path d="M317,454C402.947,436.292 455.592,402.419 507,348L387,126C299.974,82.934 198.547,151.191 197,227L317,454Z" style="fill:rgb(212,243,255);"/>
            </g>
            <g transform="matrix(-0.460366,0.211573,-0.211573,-0.460366,980.895,839.97)">
                <path d="M372,143C340.119,126.676 331.457,129.789 348,154L574,564C592.707,593.681 605.116,594.34 597,545L372,143Z" style="fill:white;fill-opacity:0.5;"/>
            </g>
            <g transform="matrix(-0.439,0.25294,-0.25294,-0.439,995.799,799.722)">
                <path d="M432,612C456.211,647.314 487.2,652.252 520,648C554.322,639.043 569.4,620.271 526,624C489.322,622.01 460.915,611.423 442,588C408.52,552.924 402.48,571.597 432,612Z" style="fill:white;fill-opacity:0.5;"/>
            </g>
        </g>
    </g>
</svg>
